<svg width="16" height="14" viewBox="0 0 16 14" fill="none" xmlns="http://www.w3.org/2000/svg">
<path d="M14.7899 6.89066L8.75241 0.856289L8.34772 0.451602C8.25551 0.360003 8.13082 0.308594 8.00085 0.308594C7.87087 0.308594 7.74618 0.360003 7.65397 0.451602L1.21178 6.89066C1.1173 6.98478 1.04263 7.09687 0.992177 7.22031C0.941725 7.34376 0.916515 7.47606 0.918034 7.60941C0.924284 8.15941 1.3821 8.59848 1.9321 8.59848H2.59616V13.6875H13.4055V8.59848H14.0837C14.3508 8.59848 14.6024 8.49379 14.7915 8.30473C14.8846 8.21193 14.9583 8.10159 15.0085 7.98009C15.0586 7.8586 15.0842 7.72836 15.0837 7.59691C15.0837 7.33129 14.979 7.07973 14.7899 6.89066V6.89066ZM8.87585 12.5625H7.12585V9.37504H8.87585V12.5625ZM12.2805 7.47348V12.5625H9.87585V9.00004C9.87585 8.65473 9.59616 8.37504 9.25085 8.37504H6.75085C6.40553 8.37504 6.12585 8.65473 6.12585 9.00004V12.5625H3.72116V7.47348H2.22116L8.00241 1.69691L8.36335 2.05785L13.7821 7.47348H12.2805Z" fill="#009779"/>
</svg>
