<svg aria-hidden="true" style="position: absolute; width: 0; height: 0; overflow: hidden;" version="1.1" xmlns="http://www.w3.org/2000/svg" xmlns:xlink="http://www.w3.org/1999/xlink">
<defs>
<symbol id="icon-play_arrow" viewBox="0 0 24 24">
<path d="M8.016 5.016l10.969 6.984-10.969 6.984v-13.969z"></path>
</symbol>
<symbol id="icon-add" viewBox="0 0 24 24">
<path d="M18.984 12.984h-6v6h-1.969v-6h-6v-1.969h6v-6h1.969v6h6v1.969z"></path>
</symbol>
<symbol id="icon-create" viewBox="0 0 24 24">
<path d="M20.719 7.031l-1.828 1.828-3.75-3.75 1.828-1.828q0.281-0.281 0.703-0.281t0.703 0.281l2.344 2.344q0.281 0.281 0.281 0.703t-0.281 0.703zM3 17.25l11.063-11.063 3.75 3.75-11.063 11.063h-3.75v-3.75z"></path>
</symbol>
<symbol id="icon-format_bold" viewBox="0 0 24 24">
<path d="M13.5 15.516q0.656 0 1.078-0.445t0.422-1.055-0.422-1.055-1.078-0.445h-3.516v3h3.516zM9.984 6.516v3h3q0.609 0 1.055-0.445t0.445-1.055-0.445-1.055-1.055-0.445h-3zM15.609 10.781q2.156 0.984 2.156 3.422 0 1.594-1.055 2.695t-2.648 1.102h-7.078v-14.016h6.281q1.688 0 2.836 1.172t1.148 2.859-1.641 2.766z"></path>
</symbol>
<symbol id="icon-format_italic" viewBox="0 0 24 24">
<path d="M9.984 3.984h8.016v3h-2.813l-3.375 8.016h2.203v3h-8.016v-3h2.813l3.375-8.016h-2.203v-3z"></path>
</symbol>
<symbol id="icon-format_underlined" viewBox="0 0 24 24">
<path d="M5.016 18.984h13.969v2.016h-13.969v-2.016zM12 17.016q-2.484 0-4.242-1.758t-1.758-4.242v-8.016h2.484v8.016q0 1.453 1.031 2.461t2.484 1.008 2.484-1.008 1.031-2.461v-8.016h2.484v8.016q0 2.484-1.758 4.242t-4.242 1.758z"></path>
</symbol>
<symbol id="icon-keyboard_arrow_down" viewBox="0 0 24 24">
<path d="M7.406 8.578l4.594 4.594 4.594-4.594 1.406 1.406-6 6-6-6z"></path>
</symbol>
<symbol id="icon-keyboard_arrow_left" viewBox="0 0 24 24">
<path d="M15.422 16.594l-1.406 1.406-6-6 6-6 1.406 1.406-4.594 4.594z"></path>
</symbol>
<symbol id="icon-keyboard_arrow_right" viewBox="0 0 24 24">
<path d="M8.578 16.594l4.594-4.594-4.594-4.594 1.406-1.406 6 6-6 6z"></path>
</symbol>
<symbol id="icon-local_printshop" viewBox="0 0 24 24">
<path d="M18 3v3.984h-12v-3.984h12zM18.984 12q0.422 0 0.727-0.281t0.305-0.703-0.305-0.727-0.727-0.305-0.703 0.305-0.281 0.727 0.281 0.703 0.703 0.281zM15.984 18.984v-4.969h-7.969v4.969h7.969zM18.984 8.016q1.219 0 2.109 0.891t0.891 2.109v6h-3.984v3.984h-12v-3.984h-3.984v-6q0-1.219 0.891-2.109t2.109-0.891h13.969z"></path>
</symbol>
<symbol id="icon-notifications_none" viewBox="0 0 24 24">
<path d="M15.984 17.016v-6q0-1.922-1.078-3.211t-2.906-1.289-2.906 1.289-1.078 3.211v6h7.969zM18 15.984l2.016 2.016v0.984h-16.031v-0.984l2.016-2.016v-4.969q0-2.344 1.195-4.078t3.305-2.25v-0.703q0-0.609 0.422-1.055t1.078-0.445 1.078 0.445 0.422 1.055v0.703q2.109 0.516 3.305 2.25t1.195 4.078v4.969zM12 21.984q-0.797 0-1.406-0.586t-0.609-1.383h4.031q0 0.797-0.609 1.383t-1.406 0.586z"></path>
</symbol>
<symbol id="icon-person_outline" viewBox="0 0 24 24">
<path d="M12 12.984q1.5 0 3.281 0.422t3.258 1.406 1.477 2.203v3h-16.031v-3q0-1.219 1.477-2.203t3.258-1.406 3.281-0.422zM12 3.984q1.641 0 2.813 1.195t1.172 2.836-1.172 2.813-2.813 1.172-2.813-1.172-1.172-2.813 1.172-2.836 2.813-1.195zM12 14.906q-2.063 0-4.078 0.773t-2.016 1.336v1.078h12.188v-1.078q0-0.563-2.016-1.336t-4.078-0.773zM12 5.906q-0.891 0-1.5 0.609t-0.609 1.5 0.609 1.477 1.5 0.586 1.5-0.586 0.609-1.477-0.609-1.5-1.5-0.609z"></path>
</symbol>
<symbol id="icon-school" viewBox="0 0 24 24">
<path d="M12 3l11.016 6v8.016h-2.016v-6.938l-9 4.922-11.016-6zM5.016 13.172l6.984 3.844 6.984-3.844v4.031l-6.984 3.797-6.984-3.797v-4.031z"></path>
</symbol>
<symbol id="icon-check_box" viewBox="0 0 24 24">
<path d="M9.984 17.016l9-9-1.406-1.453-7.594 7.594-3.563-3.563-1.406 1.406zM18.984 3q0.844 0 1.43 0.586t0.586 1.43v13.969q0 0.844-0.586 1.43t-1.43 0.586h-13.969q-0.844 0-1.43-0.586t-0.586-1.43v-13.969q0-0.844 0.586-1.43t1.43-0.586h13.969z"></path>
</symbol>
<symbol id="icon-home" viewBox="0 0 24 24">
<path d="M9.984 20.016h-4.969v-8.016h-3l9.984-9 9.984 9h-3v8.016h-4.969v-6h-4.031v6z"></path>
</symbol>
<symbol id="icon-settings" viewBox="0 0 24 24">
<path d="M12 15.516q1.453 0 2.484-1.031t1.031-2.484-1.031-2.484-2.484-1.031-2.484 1.031-1.031 2.484 1.031 2.484 2.484 1.031zM19.453 12.984l2.109 1.641q0.328 0.234 0.094 0.656l-2.016 3.469q-0.188 0.328-0.609 0.188l-2.484-0.984q-0.984 0.703-1.688 0.984l-0.375 2.625q-0.094 0.422-0.469 0.422h-4.031q-0.375 0-0.469-0.422l-0.375-2.625q-0.891-0.375-1.688-0.984l-2.484 0.984q-0.422 0.141-0.609-0.188l-2.016-3.469q-0.234-0.422 0.094-0.656l2.109-1.641q-0.047-0.328-0.047-0.984t0.047-0.984l-2.109-1.641q-0.328-0.234-0.094-0.656l2.016-3.469q0.188-0.328 0.609-0.188l2.484 0.984q0.984-0.703 1.688-0.984l0.375-2.625q0.094-0.422 0.469-0.422h4.031q0.375 0 0.469 0.422l0.375 2.625q0.891 0.375 1.688 0.984l2.484-0.984q0.422-0.141 0.609 0.188l2.016 3.469q0.234 0.422-0.094 0.656l-2.109 1.641q0.047 0.328 0.047 0.984t-0.047 0.984z"></path>
</symbol>
<symbol id="icon-menu_book" viewBox="0 0 24 24">
<path d="M17.484 14.344q1.219 0 2.531 0.234v1.5q-0.938-0.234-2.531-0.234-2.813 0-4.5 0.984v-1.688q1.781-0.797 4.5-0.797zM12.984 12.469q1.969-0.797 4.5-0.797 1.219 0 2.531 0.234v1.5q-0.938-0.234-2.531-0.234-2.813 0-4.5 0.984v-1.688zM17.484 10.5q-2.813 0-4.5 0.984v-1.641q1.875-0.844 4.5-0.844 1.219 0 2.531 0.234v1.547q-1.125-0.281-2.531-0.281zM21 18.516v-11.531q-1.547-0.469-3.516-0.469-3.047 0-5.484 1.5v11.484q2.438-1.5 5.484-1.5 1.828 0 3.516 0.516zM17.484 4.5q3.563 0 5.531 1.5v14.578q0 0.188-0.164 0.352t-0.352 0.164q-0.141 0-0.234-0.047-1.922-1.031-4.781-1.031-3.047 0-5.484 1.5-2.016-1.5-5.484-1.5-2.531 0-4.781 1.078-0.047 0-0.117 0.023t-0.117 0.023q-0.188 0-0.352-0.141t-0.164-0.328v-14.672q2.016-1.5 5.531-1.5 3.469 0 5.484 1.5 2.016-1.5 5.484-1.5z"></path>
</symbol>
<symbol id="icon-corporate_fare" viewBox="0 0 24 24">
<path d="M12 6.984v-3.984h-9.984v18h19.969v-14.016h-9.984zM9.984 18.984h-6v-1.969h6v1.969zM9.984 15h-6v-2.016h6v2.016zM9.984 11.016h-6v-2.016h6v2.016zM9.984 6.984h-6v-1.969h6v1.969zM20.016 18.984h-8.016v-9.984h8.016v9.984zM18 11.016h-3.984v1.969h3.984v-1.969zM18 15h-3.984v2.016h3.984v-2.016z"></path>
</symbol>
<symbol id="icon-subscript" viewBox="0 0 24 24">
<path d="M21.984 18h-1.969v0.984h3v1.031h-4.031v-2.016q0-0.422 0.305-0.703t0.727-0.281h1.969v-1.031h-3v-0.984h3q0.422 0 0.727 0.305t0.305 0.68v1.031q0 0.375-0.305 0.68t-0.727 0.305zM5.859 18h2.672l3.422-5.438h0.094l3.422 5.438h2.672l-4.688-7.266 4.359-6.75h-2.672l-3.094 5.016h-0.094l-3.094-5.016h-2.672l4.313 6.75z"></path>
</symbol>
<symbol id="icon-superscript" viewBox="0 0 24 24">
<path d="M21.984 6.984h-1.969v1.031h3v0.984h-4.031v-2.016q0-0.375 0.305-0.68t0.727-0.305h1.969v-0.984h-3v-1.031h3q0.422 0 0.727 0.305t0.305 0.727v0.984q0 0.422-0.305 0.703t-0.727 0.281zM5.859 20.016h2.672l3.422-5.438h0.094l3.422 5.438h2.672l-4.688-7.266 4.359-6.75h-2.672l-3.094 4.969h-0.094l-3.094-4.969h-2.672l4.313 6.75z"></path>
</symbol>
<symbol id="icon-qr_code_2" viewBox="0 0 24 24">
<path d="M15 21h-2.016v-2.016h2.016v2.016zM12.984 14.016h-1.969v4.969h1.969v-4.969zM21 12h-2.016v3.984h2.016v-3.984zM18.984 9.984h-1.969v2.016h1.969v-2.016zM6.984 12h-1.969v2.016h1.969v-2.016zM5.016 9.984h-2.016v2.016h2.016v-2.016zM12 5.016h2.016v-2.016h-2.016v2.016zM4.5 4.5v3h3v-3h-3zM9 9h-6v-6h6v6zM4.5 16.5v3h3v-3h-3zM9 21h-6v-6h6v6zM16.5 4.5v3h3v-3h-3zM21 9h-6v-6h6v6zM18.984 18.984v-3h-3.984v2.016h2.016v3h3.984v-2.016h-2.016zM17.016 12h-4.031v2.016h4.031v-2.016zM12.984 9.984h-6v2.016h2.016v2.016h2.016v-2.016h1.969v-2.016zM14.016 9v-2.016h-2.016v-1.969h-2.016v3.984h4.031zM6.75 5.25h-1.5v1.5h1.5v-1.5zM6.75 17.25h-1.5v1.5h1.5v-1.5zM18.75 5.25h-1.5v1.5h1.5v-1.5z"></path>
</symbol>
<symbol id="icon-bookmark" viewBox="0 0 20 20">
<path d="M14 2v17l-4-4-4 4v-17c0-0.553 0.585-1.020 1-1h6c0.689-0.020 1 0.447 1 1z"></path>
</symbol>
<symbol id="icon-chevron-thin-right" viewBox="0 0 20 20">
<path d="M13.25 10l-7.141-7.42c-0.268-0.27-0.268-0.707 0-0.979 0.268-0.27 0.701-0.27 0.969 0l7.83 7.908c0.268 0.271 0.268 0.709 0 0.979l-7.83 7.908c-0.268 0.271-0.701 0.27-0.969 0s-0.268-0.707 0-0.979l7.141-7.417z"></path>
</symbol>
<symbol id="icon-dots-three-vertical" viewBox="0 0 20 20">
<path d="M10.001 7.8c-1.215 0-2.201 0.985-2.201 2.2s0.986 2.2 2.201 2.2c1.215 0 2.199-0.985 2.199-2.2s-0.984-2.2-2.199-2.2zM10.001 5.2c1.215 0 2.199-0.986 2.199-2.2s-0.984-2.2-2.199-2.2c-1.215 0-2.201 0.985-2.201 2.2s0.986 2.2 2.201 2.2zM10.001 14.8c-1.215 0-2.201 0.985-2.201 2.2s0.986 2.2 2.201 2.2c1.215 0 2.199-0.985 2.199-2.2s-0.984-2.2-2.199-2.2z"></path>
</symbol>
<symbol id="icon-aircraft-take-off" viewBox="0 0 20 20">
<path d="M19.87 6.453c0.119 0.257 0.127 1.29-4.884 3.642l-4.913 2.306c-1.71 0.803-4.191 1.859-5.285 2.151-0.766 0.204-1.497-0.316-1.497-0.316s-2.206-1.975-2.792-2.419c-0.585-0.444-0.535-0.67 0.215-0.91 0.467-0.149 3.13 0.493 4.265 0.78 1.339-0.8 2.562-1.486 3.141-1.798-1.396-1.033-4.008-2.962-4.841-3.55-0.799-0.565 0.010-0.768 0.010-0.768 0.368-0.099 1.162-0.228 1.562-0.144 2.721 0.569 7.263 2.071 7.611 2.186 0.832-0.436 2.128-1.092 2.922-1.465 2.075-0.974 4.327-0.037 4.486 0.305z"></path>
</symbol>
<symbol id="icon-chat" viewBox="0 0 20 20">
<path d="M5.8 12.2v-6.2h-3.8c-1.1 0-2 0.9-2 2v6c0 1.1 0.9 2 2 2h1v3l3-3h5c1.1 0 2-0.9 2-2v-1.82c-0.064 0.014-0.132 0.021-0.2 0.021l-7-0.001zM18 1h-9c-1.1 0-2 0.9-2 2v8h7l3 3v-3h1c1.1 0 2-0.899 2-2v-6c0-1.1-0.9-2-2-2z"></path>
</symbol>
<symbol id="icon-home1" viewBox="0 0 20 20">
<path d="M18.672 11h-1.672v6c0 0.445-0.194 1-1 1h-4v-6h-4v6h-4c-0.806 0-1-0.555-1-1v-6h-1.672c-0.598 0-0.47-0.324-0.060-0.748l8.024-8.032c0.195-0.202 0.451-0.302 0.708-0.312 0.257 0.010 0.513 0.109 0.708 0.312l8.023 8.031c0.411 0.425 0.539 0.749-0.059 0.749z"></path>
</symbol>
<symbol id="icon-key" viewBox="0 0 20 20">
<path d="M17.691 4.725c-0.503-2.977-3.22-4.967-6.069-4.441s-5.256 2.816-4.753 5.795c0.107 0.641 0.408 1.644 0.763 2.365l-5.175 7.723c-0.191 0.285-0.299 0.799-0.242 1.141l0.333 1.971c0.058 0.342 0.372 0.572 0.7 0.514l1.516-0.281c0.328-0.059 0.744-0.348 0.924-0.639l2.047-3.311 0.018-0.022 1.386-0.256 2.39-3.879c0.785 0.139 1.912 0.092 2.578-0.031 2.848-0.526 4.087-3.67 3.584-6.649zM15.166 6.252c-0.784 1.17-1.584 0.346-2.703-0.475-1.119-0.818-2.135-1.322-1.352-2.492s2.326-1.455 3.447-0.635c1.12 0.819 1.391 2.432 0.608 3.602z"></path>
</symbol>
<symbol id="icon-location-pin" viewBox="0 0 20 20">
<path d="M10 2.009c-2.762 0-5 2.229-5 4.99 0 4.774 5 11 5 11s5-6.227 5-11c0-2.76-2.238-4.99-5-4.99zM10 9.76c-1.492 0-2.7-1.209-2.7-2.7s1.208-2.7 2.7-2.7c1.49 0 2.699 1.209 2.699 2.7s-1.209 2.7-2.699 2.7z"></path>
</symbol>
<symbol id="icon-magnifying-glass" viewBox="0 0 20 20">
<path d="M17.545 15.467l-3.779-3.779c0.57-0.935 0.898-2.035 0.898-3.21 0-3.417-2.961-6.377-6.378-6.377s-6.186 2.769-6.186 6.186c0 3.416 2.961 6.377 6.377 6.377 1.137 0 2.2-0.309 3.115-0.844l3.799 3.801c0.372 0.371 0.975 0.371 1.346 0l0.943-0.943c0.371-0.371 0.236-0.84-0.135-1.211zM4.004 8.287c0-2.366 1.917-4.283 4.282-4.283s4.474 2.107 4.474 4.474c0 2.365-1.918 4.283-4.283 4.283s-4.473-2.109-4.473-4.474z"></path>
</symbol>
<symbol id="icon-map" viewBox="0 0 20 20">
<path d="M19.447 3.718l-6-3c-0.281-0.141-0.613-0.141-0.895 0l-5.63 2.815-5.606-1.869c-0.306-0.102-0.64-0.051-0.901 0.138s-0.415 0.49-0.415 0.811v13.001c0 0.379 0.214 0.725 0.553 0.894l6 3c0.141 0.070 0.294 0.106 0.447 0.106s0.307-0.035 0.447-0.106l5.63-2.814 5.606 1.869c0.305 0.1 0.64 0.049 0.901-0.139s0.415-0.49 0.415-0.81v-13.002c0.001-0.379-0.213-0.725-0.552-0.894zM8 5.231l4-2v11.763l-4 2v-11.763zM2 4l4 1.333v11.661l-4-2v-10.994zM18 16.227l-4-1.334v-11.662l4 2v10.996z"></path>
</symbol>
<symbol id="icon-star" viewBox="0 0 20 20">
<path d="M10 1.3l2.388 6.722h6.412l-5.232 3.948 1.871 6.928-5.439-4.154-5.438 4.154 1.87-6.928-5.233-3.948h6.412l2.389-6.722z"></path>
</symbol>
<symbol id="icon-calendar" viewBox="0 0 32 32">
<path d="M10 12h4v4h-4zM16 12h4v4h-4zM22 12h4v4h-4zM4 24h4v4h-4zM10 24h4v4h-4zM16 24h4v4h-4zM10 18h4v4h-4zM16 18h4v4h-4zM22 18h4v4h-4zM4 18h4v4h-4zM26 0v2h-4v-2h-14v2h-4v-2h-4v32h30v-32h-4zM28 30h-26v-22h26v22z"></path>
</symbol>
</defs>
</svg>
